<svg id="Layer_1" data-name="Layer 1" xmlns="http://www.w3.org/2000/svg" viewBox="-20 400 1200 600"><defs><style>.cls-1{fill:#fff;}.cls-2{font-size:278.41px;fill:#0c173f;font-family:Sora-Medium;font-weight:500;}.cls-3{letter-spacing:0em;}.cls-4{letter-spacing:0em;}.cls-5{letter-spacing:0em;}.cls-6{letter-spacing:0em;}.cls-7{fill:#dd556b;}</style></defs><rect class="cls-1" width="0" height="0"/><text class="cls-2" transform="translate(6.37 621.34)"><tspan class="cls-3">talways</tspan></text><path class="cls-7" d="M836.93,399.6a1.81,1.81,0,0,1,1.7,1.4c.8,2.8,1.6,5.6,2.4,8.3,2.6,8.8,8.4,14.4,17.2,16.9l7.9,2.3c1,.3,1.5.8,1.5,1.6a1.78,1.78,0,0,1-1.5,1.7c-3.2.9-6.4,1.7-9.5,2.8-8.1,2.8-13.3,8.5-15.7,16.7-.8,2.6-1.5,5.3-2.3,8-.3,1-.9,1.6-1.7,1.5s-1.3-.5-1.7-1.6c-.8-2.9-1.6-5.9-2.5-8.7a23.62,23.62,0,0,0-16.5-16.2c-2.8-.9-5.7-1.6-8.5-2.4a1.62,1.62,0,0,1-1.4-1.6,1.8,1.8,0,0,1,1.5-1.7c2.9-.8,5.8-1.6,8.8-2.5,8.5-2.7,14-8.4,16.5-17,.8-2.6,1.5-5.3,2.3-8A1.47,1.47,0,0,1,836.93,399.6Z"/></svg>